<svg xmlns="http://www.w3.org/2000/svg" viewBox="0 0 210 297">
  <rect width="150" height="150" x="30" y="73.5" fill="#24273a" stroke="#24273a" stroke-linecap="round" stroke-linejoin="round" stroke-width=".27" paint-order="stroke fill markers" ry="30"/>
  <g transform="translate(41.5 67.64)">
    <path fill="#818cf8" d="M45.96 116.64a4.75 4.75 0 0 0 4.78-4.79V66.93l22 44.1a4.6 4.6 0 0 0 4.42 2.85c1.84 0 3.13-.83 4.15-2.4l22.27-45.38v45.75a4.75 4.75 0 0 0 4.79 4.79 4.8 4.8 0 0 0 4.79-4.79V49.53a4.7 4.7 0 0 0-4.79-4.79 4.7 4.7 0 0 0-4.23 2.58l-26.6 54.77-27.35-54.77c-1.01-1.75-2.4-2.58-4.23-2.58a4.7 4.7 0 0 0-4.79 4.79v62.32a4.75 4.75 0 0 0 4.79 4.79"/>
    <path fill="#a6da95" d="M45.96 116.64a4.75 4.75 0 0 0 4.79-4.78V53.59l57.97.04a4.25 4.25 0 0 0 4.42-4.42 4.26 4.26 0 0 0-4.42-4.42l-87.43-.04a4.25 4.25 0 0 0-4.42 4.42 4.25 4.25 0 0 0 4.42 4.42h19.88v58.27a4.75 4.75 0 0 0 4.79 4.78"/>
    <circle cx="108.32" cy="112.74" r="6.5" fill="#818cf8"/>
    <circle cx="76.98" cy="112.74" r="6.5" fill="#818cf8"/>
    <circle cx="18.66" cy="49" r="6.5" fill="#a6da95"/>
    <circle cx="107.7" cy="48.98" r="6.5" fill="#a6da95"/>
    <circle cx="45.84" cy="112.74" r="6.5" fill="#a6da95"/>
  </g>
</svg>
