<svg xmlns="http://www.w3.org/2000/svg" aria-hidden="true" class="iconify iconify--fxemoji" viewBox="0 0 512 512">
  <path fill="#ff6e83" d="M462.56 51.46c-27.5-27.49-58.86-40.7-70.06-29.5l-75.72 75.72 99.56 99.56 75.72-75.72c11.2-11.2-2.01-42.56-29.5-70.06"/>
  <path fill="#bfbcaf" d="M414.56 99.46C383.19 68.1 347.4 53.03 334.63 65.8l-77.54 77.54 113.59 113.59 77.54-77.54c12.77-12.78-2.3-48.56-33.66-79.93"/>
  <path fill="#2b2622" d="m115.55 449.98-68.3 29.7a9.8 9.8 0 0 1-12.91-5.08 10 10 0 0 1 0-7.83l29.7-68.3a39.14 39.14 0 1 1 51.5 51.5"/>
  <path fill="#ffd469" d="m403.42 223.96.21-.32c9.85-14.12-5.22-48.1-35.19-78.06s-63.94-45.04-78.06-35.2l-.31.22-.38.28q-.54.4-1.01.87l-.16.16-180.04 180.04S57.5 418.11 76.7 437.31s145.36-31.77 145.36-31.77l180.2-180.2q.47-.48.87-1z"/>
  <path fill="#e5aa6e" d="m108.48 291.95-4 24.94a5.45 5.45 0 0 0 6.25 6.24l17.87-2.92a5.44 5.44 0 0 1 6.3 5.91l-2 20.17a5.44 5.44 0 0 0 6.26 5.92l18.06-2.8a5.45 5.45 0 0 1 6.2 6.34l-3.1 17.28a5.45 5.45 0 0 0 5.91 6.37l20.33-2.05a5.44 5.44 0 0 1 5.97 5.97l-2.1 20.51a5.45 5.45 0 0 0 6.2 5.95l25.88-3.8L76.7 467c11.63-11.63-18.49-41.74-30.12-30.11z"/>
  <path fill="#ffb636" d="M145.9 298.54a6.79 6.79 0 0 1-4.8-11.59L291.44 136.6a6.79 6.79 0 0 1 9.6 9.6L150.69 296.55a6.8 6.8 0 0 1-4.8 2m43.21 36.41 150.36-150.35a6.79 6.79 0 1 0-9.6-9.6L179.5 325.35a6.79 6.79 0 0 0 9.6 9.6m38.41 38.41 150.36-150.35a6.79 6.79 0 1 0-9.6-9.6L217.9 363.77a6.79 6.79 0 0 0 9.6 9.6"/>
</svg>
